<svg width="1195" height="268" viewBox="0 0 1195 268" fill="none" xmlns="http://www.w3.org/2000/svg">
<path d="M112.759 99.9292V136.749H46.2448V166.021H95.3147V201.194H46.2311V266.339H0V99.9292H112.759Z" fill="#FE8980"/>
<path d="M178.561 91.668V266.34H132.33V91.668H178.561Z" fill="#FE8980"/>
<path d="M204.865 164.141C209.816 153.917 216.577 146.054 225.148 140.537C233.72 135.034 243.265 132.275 253.811 132.275C262.931 132.275 270.79 134.087 277.4 137.71C284.01 141.333 289.112 146.205 292.733 152.339V133.922H338.964V266.34H292.733V247.923C289.112 254.057 283.969 258.943 277.277 262.552C270.584 266.175 262.767 267.986 253.811 267.986C243.279 267.986 233.72 265.242 225.148 259.725C216.577 254.222 209.816 246.317 204.865 235.997C199.914 225.691 197.432 213.696 197.432 200C197.432 186.305 199.914 174.365 204.865 164.141ZM285.78 179.951C281.144 175.079 275.439 172.636 268.678 172.636C261.752 172.636 256.019 175.038 251.453 179.841C246.886 184.644 244.609 191.368 244.609 200.028C244.609 208.523 246.886 215.247 251.453 220.215C256.006 225.169 261.752 227.653 268.678 227.653C275.439 227.653 281.144 225.21 285.78 220.339C290.415 215.467 292.733 208.701 292.733 200.042C292.733 191.519 290.415 184.836 285.78 179.951Z" fill="#FE8980"/>
<path d="M577.566 147.852C587.084 157.925 591.843 171.689 591.843 189.159V266.34H545.612V195.294C545.612 188.212 543.637 182.709 539.715 178.771C535.779 174.846 530.43 172.869 523.669 172.869C516.908 172.869 511.559 174.846 507.623 178.771C503.687 182.709 501.726 188.212 501.726 195.294V266.34H455.495V195.294C455.495 188.212 453.561 182.709 449.721 178.771C445.867 174.846 440.56 172.869 433.799 172.869C426.873 172.869 421.456 174.846 417.52 178.771C413.584 182.709 411.622 188.212 411.622 195.294V266.34H365.391V133.922H411.622V151.392C415.709 145.725 421.017 141.21 427.545 137.82C434.073 134.444 441.575 132.742 450.077 132.742C459.828 132.742 468.51 134.869 476.148 139.11C483.774 143.364 489.794 149.348 494.197 157.046C498.914 149.814 505.127 143.94 512.834 139.467C520.542 134.979 529.031 132.742 538.316 132.742C554.951 132.742 568.048 137.779 577.566 147.852Z" fill="#FE8980"/>
<path d="M620.725 114.915C615.774 110.428 613.292 104.801 613.292 98.0353C613.292 91.1187 615.774 85.3686 620.725 80.7987C625.676 76.2425 632.245 73.9507 640.419 73.9507C648.442 73.9507 654.929 76.2288 659.88 80.7987C664.831 85.3686 667.313 91.105 667.313 98.0353C667.313 104.801 664.831 110.428 659.88 114.915C654.929 119.403 648.442 121.64 640.419 121.64C632.245 121.653 625.676 119.403 620.725 114.915ZM663.308 133.922V266.339H617.077V133.922H663.308Z" fill="#FE8980"/>
<path d="M812.616 147.961C821.585 158.117 826.056 171.84 826.056 189.145V266.326H779.825V195.28C779.825 187.732 777.864 181.79 773.928 177.453C769.992 173.13 764.726 170.962 758.129 170.962C751.203 170.962 745.786 173.13 741.85 177.453C737.914 181.776 735.953 187.718 735.953 195.28V266.326H689.722V133.922H735.953V152.806C740.04 146.822 745.539 141.992 752.465 138.286C759.377 134.595 767.331 132.742 776.287 132.742C791.551 132.742 803.661 137.82 812.616 147.961Z" fill="#FE8980"/>
<path d="M957.687 154.699C955.013 150.294 951.351 146.904 946.715 144.544C942.08 142.183 936.608 141.003 930.327 141.003C918.683 141.003 909.522 144.777 902.843 152.339C896.151 159.887 892.818 170.042 892.818 182.791C892.818 197.118 896.398 208.015 903.556 215.48C910.715 222.959 921.124 226.692 934.811 226.692C951.008 226.692 962.569 219.378 969.481 204.735H923.017V171.455H1009.35V216.304C1005.73 225.114 1000.42 233.376 993.426 241.088C986.432 248.801 977.586 255.127 966.889 260.095C956.192 265.049 944.014 267.533 930.327 267.533C913.65 267.533 898.907 263.951 886.098 256.788C873.275 249.624 863.373 239.633 856.379 226.816C849.385 213.998 845.888 199.314 845.888 182.791C845.888 166.433 849.385 151.831 856.379 139C863.373 126.182 873.248 116.178 885.988 109.028C898.729 101.864 913.431 98.2822 930.094 98.2822C951.008 98.2822 968.302 103.319 981.989 113.392C995.676 123.465 1004.16 137.229 1007.47 154.699H957.687Z" fill="#FE8980"/>
<path d="M1066.91 257.021C1053.85 249.707 1043.51 239.551 1035.89 226.569C1028.26 213.587 1024.45 198.916 1024.45 182.544C1024.45 166.186 1028.26 151.502 1035.89 138.519C1043.51 125.537 1053.85 115.423 1066.91 108.191C1079.96 100.958 1094.27 97.3354 1109.83 97.3354C1125.55 97.3354 1139.91 100.958 1152.88 108.191C1165.86 115.437 1176.12 125.537 1183.67 138.519C1191.21 151.502 1195 166.172 1195 182.544C1195 198.916 1191.23 213.587 1183.67 226.569C1176.13 239.551 1165.83 249.707 1152.77 257.021C1139.72 264.336 1125.41 268 1109.85 268C1094.27 268 1079.95 264.336 1066.91 257.021ZM1137.78 213.463C1144.63 205.75 1148.04 195.444 1148.04 182.544C1148.04 169.329 1144.63 158.899 1137.78 151.269C1130.94 143.638 1121.63 139.823 1109.83 139.823C1097.89 139.823 1088.52 143.638 1081.76 151.269C1075 158.899 1071.61 169.329 1071.61 182.544C1071.61 195.609 1074.99 205.956 1081.76 213.587C1088.52 221.217 1097.87 225.032 1109.83 225.032C1121.63 225.032 1130.94 221.176 1137.78 213.463Z" fill="#FE8980"/>
<path d="M1137.58 38.6136C1140.95 31.9989 1140.51 25.1921 1139.17 18.2618C1133.7 5.30686 1124.04 -0.525594 1109.93 0.0370666C1086.33 0.970259 1065.03 19.0577 1060.98 43.2796C1057.35 65.0861 1060.89 86.2339 1069.18 106.696C1069.43 107.299 1069.69 107.876 1069.94 108.48H1100.89C1091.68 92.0938 1085.27 74.9121 1086.55 55.4385C1086.86 50.553 1087.58 45.791 1090.3 40.6996C1097.44 51.1705 1107.16 54.8347 1118.95 53.5859C1127.1 50.9921 1133.6 46.436 1137.58 38.6136ZM1122.2 35.6493C1117.38 35.5533 1113.44 31.6009 1113.44 26.8526C1113.44 21.9122 1117.58 17.9736 1122.67 18.0696C1127.51 18.1657 1131.39 22.0494 1131.39 26.8389C1131.39 31.8068 1127.28 35.7591 1122.2 35.6493Z" fill="#FE8980"/>
<path d="M1176.18 63.2201C1176.51 52.1865 1172.91 42.8271 1164.94 35.0048C1157.45 27.6353 1148.17 23.2164 1139.18 18.2622C1140.51 25.1925 1140.95 32.0131 1137.59 38.614C1133.6 46.4364 1127.11 50.9926 1118.98 53.5726C1125.45 53.6 1131.93 53.6275 1138.4 53.6686C1145.48 53.7098 1148.25 56.0839 1149.59 63.1927C1158.44 63.1927 1167.31 63.2064 1176.18 63.2201Z" fill="#FECCD1"/>
<path d="M1149.58 63.1792C1149.58 74.8441 1149.58 86.4953 1149.58 98.27C1165.6 93.8373 1176.25 79.6336 1176.18 63.2341C1167.31 63.2066 1158.44 63.1929 1149.58 63.1792Z" fill="#616161"/>
<path d="M1122.66 18.0696C1117.58 17.9735 1113.44 21.9259 1113.43 26.8526C1113.43 31.6009 1117.36 35.5532 1122.19 35.6493C1127.26 35.7454 1131.38 31.8067 1131.38 26.8251C1131.38 22.0494 1127.51 18.1519 1122.66 18.0696Z" fill="#434242"/>
</svg>
