<svg width="448" height="704" viewBox="0 0 448 704" fill="none" xmlns="http://www.w3.org/2000/svg">
<path d="M418.151 363.868C398.342 329.766 371.365 303.198 337.294 284.2C303.222 265.202 265.513 255.685 224.238 255.685C211.524 255.685 199.135 256.622 187.069 258.461C170.574 223.349 160.417 186.399 163.118 145.627C163.947 132.794 165.82 120.285 172.987 106.911C191.715 134.416 217.251 144.041 248.225 140.761C269.583 133.983 286.655 122.015 297.099 101.467C305.959 84.0916 304.807 66.2113 301.277 48.0065C286.943 13.9402 261.587 -1.38065 224.526 0.0973646C162.542 2.5487 106.573 50.0613 95.9837 113.688C86.4394 170.97 95.7316 226.521 117.522 280.27C117.594 280.487 117.702 280.667 117.774 280.883C115.685 281.965 113.596 283.082 111.507 284.236C77.2192 303.27 50.0628 329.802 30.0377 363.904C10.0126 397.971 0 436.543 0 479.513C0 522.52 10.0126 561.056 30.0377 595.159C50.0628 629.261 77.2192 655.937 111.507 675.151C145.794 694.366 183.36 703.991 224.238 703.991C265.117 703.991 302.718 694.366 336.97 675.151C371.257 655.937 398.306 629.261 418.115 595.159C437.924 561.056 447.864 522.52 447.864 479.513C447.9 436.543 437.96 397.971 418.151 363.868ZM257.95 47.4658C270.663 47.7181 280.856 57.92 280.856 70.5011C280.856 83.5509 270.051 93.933 256.725 93.6807C244.047 93.4283 233.711 83.0462 233.711 70.5732C233.711 57.5595 244.587 47.2135 257.95 47.4658ZM297.676 560.732C279.703 580.991 255.248 591.121 224.274 591.121C192.904 591.121 168.305 581.1 150.549 561.056C132.793 541.013 123.896 513.832 123.896 479.513C123.896 444.798 132.757 417.401 150.549 397.358C168.305 377.314 192.868 367.293 224.274 367.293C255.248 367.293 279.703 377.314 297.676 397.358C315.648 417.401 324.616 444.798 324.616 479.513C324.616 513.436 315.612 540.508 297.676 560.732Z" fill="#FE8980"/>
<path d="M297.135 101.431C286.655 121.979 269.619 133.947 248.261 140.724C265.261 140.797 282.261 140.869 299.26 140.977C317.845 141.085 325.12 147.321 328.65 165.995C351.952 166.031 375.219 166.067 398.522 166.103C399.386 137.12 389.914 112.534 368.988 91.9862C349.323 72.6278 324.94 61.02 301.349 48.0063C304.807 66.1751 305.959 84.0554 297.135 101.431Z" fill="#FECCD1"/>
<path d="M328.614 258.136C370.681 246.492 398.666 209.181 398.486 166.103C375.183 166.067 351.916 166.031 328.614 165.995C328.614 196.6 328.614 227.206 328.614 258.136Z" fill="#616161"/>
<path d="M256.725 93.6451C270.051 93.8975 280.856 83.5514 280.856 70.4656C280.856 57.8845 270.663 47.6826 257.95 47.4303C244.624 47.1779 233.747 57.5601 233.711 70.5017C233.711 83.0107 244.047 93.3928 256.725 93.6451Z" fill="#434242"/>
</svg>
